<svg width="64" height="50" viewBox="0 0 64 50" fill="none" xmlns="http://www.w3.org/2000/svg">
<g id="noun-graph-1206974">
<path id="Shape" fill-rule="evenodd" clip-rule="evenodd" d="M56.3302 0C52.6515 0 49.6401 3.05628 49.6401 6.71685C49.6401 9.04219 50.8577 11.1282 52.6811 12.3335L45.4986 27.9097C44.6925 27.5613 43.8206 27.3596 42.892 27.3596C40.9161 27.3596 39.1412 28.2225 37.9106 29.5889L24.7041 23.2194C24.7481 22.9135 24.7622 22.6103 24.7622 22.293C24.7622 18.6095 21.7278 15.5761 18.0431 15.5761C14.3812 15.5761 11.3819 18.6095 11.3819 22.293C11.3819 24.2707 12.2565 26.0478 13.6409 27.2727L8.254 36.7979C7.75483 36.6777 7.25299 36.5953 6.71908 36.5953C3.04037 36.5953 0 39.6057 0 43.2831C0 46.9607 3.04037 50 6.71908 50C10.3978 50 13.4092 46.9607 13.4092 43.2831C13.4092 41.4741 12.6799 39.8329 11.4977 38.6219L17.0294 28.8651C17.3637 28.917 17.6949 28.9522 18.0431 28.9522C20.0861 28.9522 21.9363 28.0256 23.1692 26.5781L36.2888 32.9476C36.2301 33.3003 36.2019 33.6506 36.2019 34.0188C36.2019 37.7023 39.2072 40.7356 42.892 40.7356C46.5538 40.7356 49.5532 37.7023 49.5532 34.0188C49.5532 32.6603 49.1608 31.4 48.4526 30.3419L56.2433 13.434C56.2718 13.4343 56.3017 13.434 56.3302 13.434C60.0317 13.434 63.0203 10.3777 63.0203 6.71712C63.0203 3.05658 60.0317 0.000278031 56.3302 0.000278031L56.3302 0ZM56.3301 3.70584C58.0278 3.70584 59.3132 5.05305 59.3132 6.71685C59.3132 8.38063 58.0278 9.72784 56.3301 9.72784C54.6828 9.72784 53.3472 8.38061 53.3472 6.71685C53.3472 5.05306 54.6828 3.70584 56.3301 3.70584ZM18.0431 19.282C19.7573 19.282 21.0551 20.5792 21.0551 22.293C21.0551 23.9568 19.7573 25.2461 18.0431 25.2461C16.3787 25.2461 15.0889 23.9568 15.0889 22.293C15.0889 20.5792 16.3787 19.282 18.0431 19.282ZM42.892 31.0654C44.5564 31.0654 45.8462 32.3548 45.8462 34.0185C45.8462 35.7323 44.5564 37.0295 42.892 37.0295C41.1777 37.0295 39.909 35.7323 39.909 34.0185C39.909 32.3548 41.1777 31.0654 42.892 31.0654ZM6.71908 40.3011C8.36651 40.3011 9.70217 41.6363 9.70217 43.2831C9.70217 44.93 8.36651 46.2941 6.71908 46.2941C5.07164 46.2941 3.70708 44.93 3.70708 43.2831C3.70708 41.6363 5.07164 40.3011 6.71908 40.3011Z" fill="black"/>
</g>
</svg>
