<svg width="215" height="40" viewBox="0 0 215 40" fill="none" xmlns="http://www.w3.org/2000/svg">
<g id="Logo">
<g id="Skillex">
<path id="Path" d="M82.0417 40C78.2813 40 75.1118 39.1846 72.5332 37.5538C69.9546 35.9229 68.1102 33.638 67 30.6989L74.4134 26.3978C75.9176 29.8746 78.5499 31.6129 82.3103 31.6129C85.7126 31.6129 87.4138 30.5914 87.4138 28.5484C87.4138 27.4014 86.8587 26.5412 85.7485 25.9677C84.6024 25.2867 82.561 24.552 79.6243 23.7634C76.616 22.9391 74.0732 21.7563 71.996 20.2151C69.7039 18.3513 68.5579 15.7168 68.5579 12.3118C68.5579 8.83512 69.7935 6.05735 72.2646 3.97849C74.7716 1.89964 77.7441 0.860214 81.1822 0.860214C84.2622 0.860214 86.984 1.58602 89.3477 3.03763C91.7114 4.48925 93.5737 6.59498 94.9347 9.35484L87.6824 13.6021C86.3215 10.6989 84.1547 9.24731 81.1822 9.24731C79.9287 9.24731 78.9439 9.51613 78.2276 10.0538C77.5113 10.5914 77.1532 11.2724 77.1532 12.0968C77.1532 12.9928 77.5829 13.7993 78.4425 14.5161C79.3736 15.233 81.2001 15.9857 83.922 16.7742L87.4138 17.9032C88.3091 18.19 89.3477 18.6738 90.5296 19.3548C91.8189 20 92.7858 20.6989 93.4305 21.4516C95.1495 23.3154 96.0091 25.6452 96.0091 28.4409C96.0091 31.9892 94.7198 34.8208 92.1412 36.9355C89.5626 38.9785 86.1961 40 82.0417 40Z" fill="black"/>
<path id="Path_2" d="M113.988 25.8065L124.033 39.2473H114.901L106.306 27.3656V39.2473H98.2474V1.6129H106.306V24.1398L114.364 12.3656H123.765L113.988 25.8065Z" fill="black"/>
<path id="Shape" fill-rule="evenodd" clip-rule="evenodd" d="M129.226 10C130.551 10 131.68 9.53405 132.611 8.60215C133.578 7.63441 134.061 6.48746 134.061 5.16129C134.061 3.83513 133.578 2.70609 132.611 1.7742C131.68 0.806453 130.551 0.322582 129.226 0.322582C127.901 0.322582 126.755 0.806453 125.788 1.7742C124.857 2.70609 124.391 3.83513 124.391 5.16129C124.391 6.48746 124.857 7.63441 125.788 8.60215C126.755 9.53405 127.901 10 129.226 10ZM125.197 39.2473H133.255V12.3656H125.197V39.2473Z" fill="black"/>
<path id="Path_3" d="M145.432 39.2473H137.374V0H145.432V39.2473Z" fill="black"/>
<path id="Path_4" d="M157.609 39.2473H149.551V0H157.609V39.2473Z" fill="black"/>
<path id="Shape_2" fill-rule="evenodd" clip-rule="evenodd" d="M168.926 29.0323H187.996C188.211 28.0287 188.319 26.9534 188.319 25.8064C188.319 21.7204 187.012 18.3513 184.397 15.6989C181.819 12.9749 178.577 11.6129 174.674 11.6129C170.484 11.6129 167.045 12.9749 164.359 15.6989C161.709 18.4229 160.384 21.7921 160.384 25.8064C160.384 29.8925 161.727 33.2796 164.413 35.9677C167.171 38.6559 170.788 40 175.265 40C180.458 40 184.361 38.1541 186.976 34.4624L180.529 30.7527C179.276 32.1147 177.557 32.7957 175.372 32.7957C171.97 32.7957 169.821 31.5412 168.926 29.0323ZM180.314 23.0107H168.765C169.552 20.1792 171.504 18.7634 174.62 18.7634C177.628 18.7634 179.527 20.1792 180.314 23.0107Z" fill="black"/>
<path id="Path_5" d="M205.384 25.5914L215 39.2473H205.76L200.764 32.1505L195.768 39.2473H186.528L196.144 25.5914L186.85 12.3656H196.09L200.764 19.0323L205.438 12.3656H214.678L205.384 25.5914Z" fill="black"/>
</g>
<g id="noun-graph-1206974">
<path id="Shape_3" fill-rule="evenodd" clip-rule="evenodd" d="M45.0641 0C42.1212 0 39.7121 2.44503 39.7121 5.37348C39.7121 7.23375 40.6861 8.90256 42.1449 9.86681L36.3989 22.3278C35.754 22.0491 35.0565 21.8877 34.3136 21.8877C32.7329 21.8877 31.3129 22.578 30.3285 23.6711L19.7633 18.5755C19.7985 18.3308 19.8097 18.0883 19.8097 17.8344C19.8097 14.8876 17.3823 12.4609 14.4345 12.4609C11.505 12.4609 9.10548 14.8876 9.10548 17.8344C9.10548 19.4166 9.80523 20.8383 10.9127 21.8182L6.6032 29.4383C6.20386 29.3421 5.80239 29.2762 5.37526 29.2762C2.43229 29.2762 0 31.6846 0 34.6265C0 37.5685 2.43229 40 5.37526 40C8.31823 40 10.7274 37.5685 10.7274 34.6265C10.7274 33.1793 10.144 31.8663 9.19814 30.8975L13.6235 23.0921C13.8909 23.1336 14.1559 23.1618 14.4345 23.1618C16.0689 23.1618 17.549 22.4205 18.5354 21.2625L29.031 26.3581C28.9841 26.6402 28.9615 26.9205 28.9615 27.215C28.9615 30.1619 31.3658 32.5885 34.3136 32.5885C37.243 32.5885 39.6426 30.1619 39.6426 27.215C39.6426 26.1283 39.3286 25.12 38.7621 24.2735L44.9947 10.7472C45.0174 10.7475 45.0414 10.7472 45.0641 10.7472C48.0254 10.7472 50.4163 8.30213 50.4163 5.3737C50.4163 2.44526 48.0254 0.000222425 45.0641 0.000222425L45.0641 0ZM45.0641 2.96467C46.4223 2.96467 47.4506 4.04244 47.4506 5.37348C47.4506 6.7045 46.4223 7.78227 45.0641 7.78227C43.7463 7.78227 42.6777 6.70449 42.6777 5.37348C42.6777 4.04245 43.7463 2.96467 45.0641 2.96467ZM14.4345 15.4256C15.8059 15.4256 16.8441 16.4634 16.8441 17.8344C16.8441 19.1654 15.8059 20.1969 14.4345 20.1969C13.103 20.1969 12.0711 19.1654 12.0711 17.8344C12.0711 16.4634 13.103 15.4256 14.4345 15.4256ZM34.3136 24.8524C35.6451 24.8524 36.6769 25.8838 36.6769 27.2148C36.6769 28.5858 35.6451 29.6236 34.3136 29.6236C32.9422 29.6236 31.9272 28.5858 31.9272 27.2148C31.9272 25.8838 32.9422 24.8524 34.3136 24.8524ZM5.37526 32.2409C6.69321 32.2409 7.76174 33.309 7.76174 34.6265C7.76174 35.944 6.69321 37.0353 5.37526 37.0353C4.05732 37.0353 2.96567 35.944 2.96567 34.6265C2.96567 33.309 4.05732 32.2409 5.37526 32.2409Z" fill="black"/>
</g>
</g>
</svg>
